<svg xmlns="http://www.w3.org/2000/svg" viewBox="0 0 512 512"><path d="M257 0C116.302 0 0 114.3 0 255s116.302 257 257 257 255-116.3 255-257S397.698 0 257 0z" fill="#fedb41"/><path d="M512 255c0 140.7-114.302 257-255 257V0c140.698 0 255 114.3 255 255z" fill="#fc3"/><path d="M257 60C149.598 60 60 147.599 60 255s89.598 197 197 197 195-89.599 195-197S364.402 60 257 60z" fill="#fea832"/><path d="M452 255c0 107.401-87.598 197-195 197V60c107.402 0 195 87.599 195 195z" fill="#fe9923"/><path d="M327.499 357.499c-22.2 22.5-44.7 20.7-70.499 9.6-4.797-1.8-9.602-4.199-14.399-6.599-25.203-12.9-37.999-16.8-51.801-3.001h-.3c-14.099 14.101-35.101-7.2-20.999-20.999 22.5-22.5 25.499-45.2 22.797-66.501H165c-19.797 0-19.797-30 0-30h20.999c-5.398-23.101-10.796-47.1.601-71.1 11.7-24.899 42.802-36.6 70.4-34.199 30.901 2.701 60 22.8 60 60.3 0 19.799-30 19.799-30 0 0-17.999-14.099-27.599-30-30-16.501-2.701-37.098 3.3-43.4 16.5-7.2 15.601-2.699 33.3 2.098 53.701.601 1.5.901 3.3 1.201 4.799H287c19.797 0 19.797 30 0 30h-64.703c1.802 15 .901 32.901-5.698 49.401 13.799 2.1 28.7 8.699 39.8 14.099.3 0 .3.3.601.3 25.203 12.9 35.698 16.5 49.501 2.701 14.099-14.101 35.101 7.199 20.998 20.998z" fill="#fedb41"/><g fill="#fc3"><path d="M287 270h-30v-30h30c19.797 0 19.797 30 0 30zM257 165v-30.3c30.901 2.701 60 22.8 60 60.3 0 19.799-30 19.799-30 0 0-17.999-14.099-27.599-30-30zM327.499 357.499c-22.2 22.5-44.7 20.7-70.499 9.6v-33.3c25.203 12.9 35.698 16.5 49.501 2.701 14.099-14.1 35.101 7.2 20.998 20.999z"/></g></svg>